<svg xmlns="http://www.w3.org/2000/svg" version="1.1" xmlns:xlink="http://www.w3.org/1999/xlink" xmlns:svgjs="http://svgjs.dev/svgjs" width="100%" height="100%" viewBox="0 0 1000 600"><rect width="1000" height="600" x="0" y="0" fill="#234e70"/><g><circle r="166.66666666666666" cx="388.90712992350257" cy="411.129380590839" fill="#fbf8be" transform="matrix(0.5624538097223838,0,0,0.5624538097223838,0,68.75872504009018)"/><path d="M368.6571382394309 412.1293986750683L368.6571382394309 486.1293986750683L347.6571382394309 486.1293986750683L347.6571382394309 357.1293986750683L344.6571382394309 336.1293986750683L433.1571382394309 336.1293986750683L431.1571382394309 352.1293986750683L366.6571382394309 352.1293986750683L368.6571382394309 371.1293986750683L368.6571382394309 397.6293986750683L422.6571382394309 397.6293986750683L422.6571382394309 412.1293986750683L368.6571382394309 412.1293986750683Z " fill="#234e70" transform="matrix(0.5624538097223838,0,0,0.5624538097223838,0,68.75872504009018)"/><path d="M662.5913482457609 411.12939700195545L662.5913482457609 484.15571116234565L641.8676644975419 484.15571116234565L641.8676644975419 356.8530824232871L638.9071382477964 336.1293986750683L726.2426626152901 336.1293986750683L724.268978448793 351.9188720070445L660.6176640792637 351.9188720070445L662.5913482457609 370.6688715887663L662.5913482457609 396.820186794852L715.8808207411806 396.820186794852L715.8808207411806 411.12939700195545L662.5913482457609 411.12939700195545ZM810.6176607330382 466.3925536638724L812.5913448995352 484.15571116234565L791.8676611513164 484.15571116234565L791.8676611513164 468.17435186973773L782.6023104808164 479.22150074610306Q780.9027491152217 480.5098779103442 778.7371789880931 481.6886059542244Q776.5716088609644 482.8673339981045 774.3512141736552 483.7993515211726Q772.130819486346 484.7587813243308 769.9104247990368 485.27961464604533Q767.6900301117278 485.8278602478501 765.8259950655917 485.8278602478501L765.8259950655917 485.8278602478501Q758.4246794412278 485.8278602478501 751.6538462589393 483.5252287202702Q744.883013076651 481.1951849126001 739.8117412599572 476.6995709778013Q734.7404694432634 472.2039570430025 731.7251186333374 465.542772981075Q728.7097678234113 458.88158891914753 728.7097678234113 450.2193084106328L728.7097678234113 450.2193084106328Q728.7097678234113 441.0361945804035 732.4104256355934 434.26536139811515Q736.1110834477752 427.52194049591697 741.8950745468152 423.02632656111814Q747.6516533657648 418.5307126263193 754.751433909136 416.3103179390102Q761.8786267325976 414.089923251701 768.6768721949762 414.089923251701L768.6768721949762 414.089923251701Q774.2963896134747 414.089923251701 778.6001175876419 414.6929934136862Q782.8764332817187 415.2686512955812 785.8369595314643 416.06360741819805L785.8369595314643 416.06360741819805Q789.2909068228341 416.94080038108564 791.8676611513164 418.0372915846951L791.8676611513164 418.0372915846951L791.8676611513164 414.5833442933253Q791.8676611513164 408.7719409141951 791.1823541490604 404.11185329885495Q790.4970471468046 399.4791779636049 788.3588892997661 396.27194119304727Q786.2481437328179 393.0647044224896 782.2459508396433 391.39255533698514Q778.2437579464688 389.7204062514807 771.6373984447218 389.7204062514807L771.6373984447218 389.7204062514807Q766.3194161072158 389.7204062514807 761.3852056909733 390.4605378139171Q756.4509952747308 391.2006693763535 752.5858637820073 392.07786233924105L752.5858637820073 392.07786233924105Q748.0628375671183 393.17435354285055 744.197706074395 394.3530815867307L744.197706074395 394.3530815867307L737.0979255310237 381.1403625832367Q741.4290657852811 379.16667841673967 746.9663463635089 377.57676617150594L746.9663463635089 377.57676617150594Q751.7086708191198 376.2061521669941 758.2053812005058 375.0548364032042Q764.7295038619822 373.93093291950447 772.6242405279703 373.93093291950447L772.6242405279703 373.93093291950447Q783.9729244853282 373.93093291950447 791.3742401096921 376.9736960095207Q798.775555734056 380.04387137962726 803.0244591480426 385.581151957855Q807.2733625620293 391.09102025599253 808.9455116475337 398.8486955215295Q810.6176607330382 406.5789585069762 810.6176607330382 416.06360741819805L810.6176607330382 416.06360741819805L810.6176607330382 466.3925536638724ZM791.8676611513164 457.1272029933724L791.8676611513164 431.5515456691817Q789.0990208622025 431.1677737479184 785.9466086518253 430.75658954656484L785.9466086518253 430.75658954656484Q783.2876174830724 430.48246674566246 779.8336701917025 430.18093166466986Q776.3797229003327 429.87939658367725 772.6242405279703 429.87939658367725L772.6242405279703 429.87939658367725Q767.0869599497425 429.87939658367725 762.5091091746731 430.97588778728675Q757.9312583996035 432.04496671080597 754.5595479485044 434.4572473587468Q751.2152497774955 436.89694028677786 749.3238024512692 440.73465949941095Q747.4597674051331 444.57237871204404 747.4597674051331 450.10965929027185L747.4597674051331 450.10965929027185Q747.4597674051331 454.55044866489015 748.940030530006 458.1962819168916Q750.4202936548787 461.8421151688931 752.997047983361 464.52851861773627Q755.5463900317529 467.1875097864892 759.0551618833032 468.61294835118156Q762.5639337348534 470.03838691587384 766.5935389081183 470.03838691587384L766.5935389081183 470.03838691587384Q768.4849862343447 470.03838691587384 770.5957318012928 469.4901413140691Q772.7338896483312 468.96930799235463 774.8446352152795 468.0647027493768Q776.9553807822276 467.1875097864892 779.0935386292662 466.008781742609Q781.2042841962143 464.80264141863864 783.0957315224407 463.62391337475844L783.0957315224407 463.62391337475844Q787.536520897059 460.7730362453739 791.8676611513164 457.1272029933724L791.8676611513164 457.1272029933724ZM907.3281848913928 375.6030820050089L924.5979213482417 373.62939783851186L887.9751151476858 486.1293953288427L867.6626156008203 484.15571116234565L832.4378356848665 375.6030820050089L850.475115984242 373.62939783851186L874.0770891419357 446.5460628785411L879.3128346391709 469.46272903397886L884.2470450554135 446.5460628785411L907.3281848913928 375.6030820050089ZM972.4597623857948 378.07018721313017L972.4597623857948 484.15571116234565L953.7097628040729 484.15571116234565L953.7097628040729 380.04387137962726L972.4597623857948 378.07018721313017ZM953.1066926420878 355.8662403400386L953.1066926420878 336.1293986750683L973.0628325477799 336.1293986750683L973.0628325477799 355.8662403400386L953.1066926420878 355.8662403400386ZM1082.6023037883651 386.3486958003816L1072.8161197961508 397.50549379710793Q1068.9784005835177 394.0515465057381 1063.687830526102 391.8859763786094Q1058.4246727487766 389.7204062514807 1052.7777430501878 389.7204062514807L1052.7777430501878 389.7204062514807Q1044.4992344629363 389.7204062514807 1038.6878310838063 392.8179939016775Q1032.849015424586 395.94299383196443 1029.258006732765 401.2609761694703Q1025.6395857608536 406.5789585069762 1023.9674366753492 413.65132677025724Q1022.2952875898447 420.69628275344803 1022.2952875898447 428.5087825791654L1022.2952875898447 428.5087825791654Q1022.2952875898447 436.59540520578526 1023.830375274898 443.94189626996865Q1025.3654629599514 451.28838733415205 1029.0112962119529 456.9079047526505Q1032.6571294639543 462.55483445123923 1038.7152433638964 465.8443080620676Q1044.8007695439292 469.16119395298625 1053.874234253797 469.16119395298625L1053.874234253797 469.16119395298625Q1061.4674358387929 469.16119395298625 1066.7580058962085 467.37939574712084Q1072.021163673534 465.5975975412555 1074.8994530830087 463.62391337475844L1074.8994530830087 463.62391337475844L1081.99923362638 477.54935166059863Q1076.4619530481523 481.304834032961 1069.1154619839688 483.55264100036044Q1061.7689709197855 485.8278602478501 1052.5036202492854 485.8278602478501L1052.5036202492854 485.8278602478501Q1040.1680942086791 485.8278602478501 1030.8753312580889 480.94847439178795Q1021.6099805875889 476.0690885357259 1015.4422175672856 467.9276413489256Q1009.2744545469825 459.78619416212535 1006.1494546166955 449.1776417672038Q1003.0518669664987 438.5690893722823 1003.0518669664987 427.22040541492436L1003.0518669664987 427.22040541492436Q1003.0518669664987 416.94080038108564 1006.0672177764247 407.3190900694126Q1009.0825685863508 397.69737975773955 1015.2503316066541 390.2960641333757Q1021.4180946269573 382.89474850901183 1030.8205066979083 378.4265468543033Q1040.2503310489496 373.93093291950447 1052.9970412909097 373.93093291950447L1052.9970412909097 373.93093291950447Q1062.070506000778 373.93093291950447 1069.2251111043297 376.72698548870864Q1076.3797162078815 379.550450338003 1082.6023037883651 386.3486958003816L1082.6023037883651 386.3486958003816ZM1150.9685303334152 485.8278602478501L1150.9685303334152 485.8278602478501Q1140.0310305774108 485.8278602478501 1130.9849781476328 481.55154455377317Q1121.9663379979447 477.247816579606 1115.4422153364685 469.709439554791Q1108.9455049550825 462.1436502498857 1105.3270839831712 451.83663293595674Q1101.7360752913503 441.5296156220278 1101.7360752913503 429.5778615026847L1101.7360752913503 429.5778615026847Q1101.7360752913503 417.6535196634318 1105.19002258272 407.4287391897735Q1108.6439698740899 397.2039587161153 1115.0584434152051 389.77523081166123Q1121.4729169563207 382.31909062711685 1130.6012062263694 378.1250117733107Q1139.7294954964182 373.93093291950447 1150.9685303334152 373.93093291950447L1150.9685303334152 373.93093291950447Q1161.9334423695097 373.93093291950447 1171.0069070793782 378.1250117733107Q1180.0803717892463 382.31909062711685 1186.6044944507225 389.77523081166123Q1193.128617112199 397.2039587161153 1196.7744503642004 407.4287391897735Q1200.420283616202 417.6535196634318 1200.420283616202 429.5778615026847L1200.420283616202 429.5778615026847Q1200.420283616202 441.5296156220278 1196.9115117646516 451.83663293595674Q1193.4027399131014 462.1436502498857 1186.988266371986 469.709439554791Q1180.5737928308706 477.247816579606 1171.4180912807317 481.55154455377317Q1162.2349774505024 485.8278602478501 1150.9685303334152 485.8278602478501ZM1181.6702840344801 432.23685267143765L1181.6702840344801 432.23685267143765Q1181.6702840344801 424.2598791651788 1179.943310388795 416.5570284598223Q1178.2163367431103 408.8541777544658 1174.4608543707477 402.7960638545236Q1170.7053719983855 396.71053767449104 1164.7843194988945 392.9824675822189Q1158.8632669994033 389.2269852098565 1150.5847584121516 389.2269852098565L1150.5847584121516 389.2269852098565Q1142.6900217461637 389.2269852098565 1136.9608552073041 392.48904654059464Q1131.2316886684448 395.7236955912425 1127.5858554164433 401.15132704910934Q1123.9400221644419 406.5789585069762 1122.213048518757 413.48685308971585Q1120.486074873072 420.3947476724554 1120.486074873072 427.7138264565486L1120.486074873072 427.7138264565486Q1120.486074873072 435.69079996280743 1122.213048518757 443.3936506681639Q1123.9400221644419 451.09650137352037 1127.640679976624 457.1272029933724Q1131.3413377888057 463.1304923331342 1137.2075657281164 466.83115014531614Q1143.073793667427 470.5318079574981 1151.3797145347687 470.5318079574981L1151.3797145347687 470.5318079574981Q1159.164802080396 470.5318079574981 1164.8939686192552 467.2697466267599Q1170.6231351581146 464.035097576112 1174.3786175304772 458.63487839833545Q1178.1066876227494 453.2620715006491 1179.8884858286146 446.35417691790946Q1181.6702840344801 439.4462823351698 1181.6702840344801 432.23685267143765ZM1248.7755456953792 400.877204248207L1248.7755456953792 484.15571116234565L1230.0255461136574 484.15571116234565L1230.0255461136574 375.6030820050089L1248.7755456953792 373.62939783851186L1248.7755456953792 391.69409041797775L1254.8062473152313 381.1403625832367Q1256.5606332410064 379.9342222592663 1259.3292735301202 378.6732573751154Q1262.097913819234 377.38488021087426 1265.4970365504234 376.34321356744533Q1268.8961592816127 375.3015469240163 1272.843527614607 374.6162399217604Q1276.7908959476008 373.93093291950447 1280.8479134009558 373.93093291950447L1280.8479134009558 373.93093291950447Q1288.6330009465833 373.93093291950447 1294.0332201243596 376.45286268780626Q1299.4060270220461 378.94738017601776 1302.750325193055 383.6897046316287Q1306.122035644154 388.4320290872396 1307.5474742088463 395.1480377093476Q1308.9729127735386 401.86404633145554 1308.9729127735386 410.142554918707L1308.9729127735386 410.142554918707L1308.9729127735386 484.15571116234565L1290.2229131918168 484.15571116234565L1290.2229131918168 410.142554918707Q1290.2229131918168 404.8245725812011 1289.4827816293805 400.9594410884777Q1288.742650066944 397.1217218758446 1286.9060273008981 394.59979210754284Q1285.0968168149425 392.07786233924105 1282.026641444836 390.8991342953609Q1278.9838783548198 389.7204062514807 1274.4334398598405 389.7204062514807L1274.4334398598405 389.7204062514807Q1271.0891416888317 389.7204062514807 1267.6351943974619 390.7620728949097Q1264.181247106092 391.77632725824844 1260.8643612151736 393.42106406366264Q1257.5474753242547 395.0383885889866 1254.4498876740581 397.01207275548364Q1251.3523000238615 398.9857569219807 1248.7755456953792 400.877204248207L1248.7755456953792 400.877204248207ZM1337.2075612664821 469.3530799136179L1337.2075612664821 469.3530799136179Q1337.2075612664821 466.008781742609 1338.4685261506331 463.0482554928635Q1339.7569033148743 460.08772924311796 1341.9772980021835 457.8673345558088Q1344.1976926894927 455.64693986849966 1347.1033943790576 454.35856270425853Q1350.0365083487131 453.0701855400174 1353.3808065197218 453.0701855400174L1353.3808065197218 453.0701855400174Q1356.7251046907306 453.0701855400174 1359.6856309404761 454.35856270425853Q1362.6461571902216 455.64693986849966 1364.8665518775308 457.8673345558088Q1367.08694656484 460.08772924311796 1368.3753237290812 463.0482554928635Q1369.6637008933221 466.008781742609 1369.6637008933221 469.3530799136179L1369.6637008933221 469.3530799136179Q1369.6637008933221 472.69737808462673 1368.3753237290812 475.7127288945528Q1367.08694656484 478.72807970447883 1364.9213764377114 480.94847439178795Q1362.7558063105826 483.16886907909713 1359.8501046210176 484.5120708035187Q1356.9444029314525 485.8278602478501 1353.5726924803535 485.8278602478501L1353.5726924803535 485.8278602478501Q1350.2283943093446 485.8278602478501 1347.2130434994185 484.5120708035187Q1344.1976926894927 483.16886907909713 1341.9772980021835 480.94847439178795Q1339.7569033148743 478.72807970447883 1338.4685261506331 475.7127288945528Q1337.2075612664821 472.69737808462673 1337.2075612664821 469.3530799136179ZM1426.407120680112 378.07018721313017L1426.407120680112 484.15571116234565L1407.6571210983902 484.15571116234565L1407.6571210983902 380.04387137962726L1426.407120680112 378.07018721313017ZM1407.054050936405 355.8662403400386L1407.054050936405 336.1293986750683L1427.010190842097 336.1293986750683L1427.010190842097 355.8662403400386L1407.054050936405 355.8662403400386ZM1506.231680302881 485.8278602478501L1506.231680302881 485.8278602478501Q1495.2941805468765 485.8278602478501 1486.2481281170983 481.55154455377317Q1477.2294879674105 477.247816579606 1470.7053653059343 469.709439554791Q1464.2086549245482 462.1436502498857 1460.590233952637 451.83663293595674Q1456.9992252608158 441.5296156220278 1456.9992252608158 429.5778615026847L1456.9992252608158 429.5778615026847Q1456.9992252608158 417.6535196634318 1460.4531725521856 407.4287391897735Q1463.9071198435556 397.2039587161153 1470.321593384671 389.77523081166123Q1476.7360669257862 382.31909062711685 1485.8643561958352 378.1250117733107Q1494.992645465884 373.93093291950447 1506.231680302881 373.93093291950447L1506.231680302881 373.93093291950447Q1517.1965923389755 373.93093291950447 1526.2700570488437 378.1250117733107Q1535.343521758712 382.31909062711685 1541.8676444201883 389.77523081166123Q1548.3917670816645 397.2039587161153 1552.037600333666 407.4287391897735Q1555.6834335856674 417.6535196634318 1555.6834335856674 429.5778615026847L1555.6834335856674 429.5778615026847Q1555.6834335856674 441.5296156220278 1552.1746617341173 451.83663293595674Q1548.665889882567 462.1436502498857 1542.2514163414517 469.709439554791Q1535.8369428003361 477.247816579606 1526.6812412501972 481.55154455377317Q1517.4981274199681 485.8278602478501 1506.231680302881 485.8278602478501ZM1536.9334340039456 432.23685267143765L1536.9334340039456 432.23685267143765Q1536.9334340039456 424.2598791651788 1535.2064603582608 416.5570284598223Q1533.479486712576 408.8541777544658 1529.7240043402137 402.7960638545236Q1525.9685219678513 396.71053767449104 1520.0474694683598 392.9824675822189Q1514.126416968869 389.2269852098565 1505.8479083816173 389.2269852098565L1505.8479083816173 389.2269852098565Q1497.9531717156292 389.2269852098565 1492.2240051767699 392.48904654059464Q1486.4948386379106 395.7236955912425 1482.849005385909 401.15132704910934Q1479.2031721339076 406.5789585069762 1477.4761984882225 413.48685308971585Q1475.7492248425378 420.3947476724554 1475.7492248425378 427.7138264565486L1475.7492248425378 427.7138264565486Q1475.7492248425378 435.69079996280743 1477.4761984882225 443.3936506681639Q1479.2031721339076 451.09650137352037 1482.9038299460894 457.1272029933724Q1486.6044877582713 463.1304923331342 1492.470715697582 466.83115014531614Q1498.3369436368926 470.5318079574981 1506.6428645042342 470.5318079574981L1506.6428645042342 470.5318079574981Q1514.4279520498615 470.5318079574981 1520.157118588721 467.2697466267599Q1525.8862851275803 464.035097576112 1529.641767499943 458.63487839833545Q1533.369837592215 453.2620715006491 1535.1516357980804 446.35417691790946Q1536.9334340039456 439.4462823351698 1536.9334340039456 432.23685267143765Z " fill="#fbf8be" transform="matrix(0.5624538097223838,0,0,0.5624538097223838,0,68.75872504009018)"/></g></svg>